<svg width="226" height="97" viewBox="0 0 226 97" fill="none" xmlns="http://www.w3.org/2000/svg">
<path d="M127.225 70.2373C129.142 70.2373 130.783 70.3623 132.15 70.6123C132.533 70.7123 132.725 70.9373 132.725 71.2873V73.2873C132.725 73.5373 132.6 73.6623 132.35 73.6623H127.225C125.542 73.6623 124.442 74.0956 123.925 74.9623C123.425 75.8456 123.175 77.5373 123.175 80.0373C123.175 82.5706 123.425 84.2706 123.925 85.1373C124.442 86.004 125.542 86.4373 127.225 86.4373H132.35C132.6 86.4373 132.725 86.5623 132.725 86.8123V88.8373C132.725 89.1706 132.533 89.3873 132.15 89.4873C130.917 89.7373 129.275 89.8623 127.225 89.8623C125.542 89.8623 124.208 89.7123 123.225 89.4123C122.242 89.0956 121.442 88.554 120.825 87.7873C120.225 87.004 119.8 86.0206 119.55 84.8373C119.317 83.6373 119.2 82.0373 119.2 80.0373C119.2 78.0373 119.317 76.4456 119.55 75.2623C119.8 74.0623 120.225 73.079 120.825 72.3123C121.442 71.5456 122.242 71.0123 123.225 70.7123C124.208 70.3956 125.542 70.2373 127.225 70.2373ZM140.251 75.6123C142.585 75.6123 144.176 75.9623 145.026 76.6623C145.876 77.3623 146.301 78.4456 146.301 79.9123V88.5623C146.301 88.9623 146.118 89.2206 145.751 89.3373C144.235 89.6873 142.343 89.8623 140.076 89.8623C138.96 89.8623 138.101 89.8206 137.501 89.7373C136.918 89.654 136.36 89.4706 135.826 89.1873C134.826 88.6373 134.318 87.4206 134.301 85.5373C134.318 83.9373 134.726 82.854 135.526 82.2873C136.343 81.7206 137.643 81.4373 139.426 81.4373H142.601V80.5373C142.601 79.3873 141.818 78.8123 140.251 78.8123H135.726C135.593 78.8123 135.501 78.7873 135.451 78.7373C135.401 78.6873 135.376 78.5873 135.376 78.4373V76.3873C135.376 76.254 135.393 76.1623 135.426 76.1123C135.476 76.0623 135.576 76.0206 135.726 75.9873C137.01 75.7373 138.518 75.6123 140.251 75.6123ZM142.601 86.6123V83.8373H139.726C139.076 83.8373 138.618 83.954 138.351 84.1873C138.101 84.404 137.976 84.7873 137.976 85.3373C137.976 85.9206 138.126 86.3206 138.426 86.5373C138.743 86.754 139.301 86.8623 140.101 86.8623C141.201 86.8623 142.035 86.779 142.601 86.6123ZM153.687 75.6123C155.07 75.6123 156.179 75.704 157.012 75.8873C157.279 75.954 157.412 76.1206 157.412 76.3873V78.4373C157.412 78.6873 157.27 78.8123 156.987 78.8123H154.637C153.937 78.8123 153.47 78.8956 153.237 79.0623C153.004 79.229 152.887 79.5706 152.887 80.0873V89.3373C152.887 89.604 152.762 89.7373 152.512 89.7373H149.537C149.287 89.7373 149.162 89.604 149.162 89.3373V79.1373C149.162 77.9873 149.47 77.1206 150.087 76.5373C150.82 75.9206 152.02 75.6123 153.687 75.6123ZM163.721 75.6123C165.104 75.6123 166.213 75.704 167.046 75.8873C167.313 75.954 167.446 76.1206 167.446 76.3873V78.4373C167.446 78.6873 167.304 78.8123 167.021 78.8123H164.671C163.971 78.8123 163.504 78.8956 163.271 79.0623C163.038 79.229 162.921 79.5706 162.921 80.0873V89.3373C162.921 89.604 162.796 89.7373 162.546 89.7373H159.571C159.321 89.7373 159.196 89.604 159.196 89.3373V79.1373C159.196 77.9873 159.504 77.1206 160.121 76.5373C160.854 75.9206 162.054 75.6123 163.721 75.6123ZM175.13 75.6123C177.597 75.6123 179.23 76.079 180.03 77.0123C180.83 77.9123 181.247 79.7623 181.28 82.5623V83.3373C181.28 83.5873 181.222 83.7623 181.105 83.8623C180.989 83.9623 180.78 84.0123 180.48 84.0123H172.63C172.664 85.129 172.855 85.8456 173.205 86.1623C173.589 86.4956 174.339 86.6623 175.455 86.6623H179.88C180.13 86.6623 180.255 86.7873 180.255 87.0373V89.1123C180.255 89.3456 180.139 89.479 179.905 89.5123C178.739 89.7456 177.147 89.8623 175.13 89.8623C172.597 89.8623 170.922 89.3873 170.105 88.4373C169.272 87.4706 168.855 85.5706 168.855 82.7373C168.855 79.8706 169.272 77.9706 170.105 77.0373C170.922 76.0873 172.597 75.6123 175.13 75.6123ZM175.13 78.8123C174.18 78.8123 173.522 79.004 173.155 79.3873C172.805 79.7706 172.622 80.504 172.605 81.5873H177.555C177.539 80.504 177.355 79.7706 177.005 79.3873C176.672 79.004 176.047 78.8123 175.13 78.8123ZM185.511 69.8373C186.194 69.8373 186.719 70.0123 187.086 70.3623C187.469 70.7123 187.661 71.204 187.661 71.8373C187.661 72.4706 187.469 72.9706 187.086 73.3373C186.719 73.6873 186.194 73.8623 185.511 73.8623C184.811 73.8623 184.269 73.6873 183.886 73.3373C183.502 72.9706 183.311 72.4706 183.311 71.8373C183.311 71.204 183.502 70.7123 183.886 70.3623C184.269 70.0123 184.811 69.8373 185.511 69.8373ZM184.011 75.7373H186.961C187.211 75.7373 187.336 75.8623 187.336 76.1123V89.3373C187.336 89.604 187.211 89.7373 186.961 89.7373H184.011C183.761 89.7373 183.636 89.604 183.636 89.3373V76.1123C183.636 75.8623 183.761 75.7373 184.011 75.7373ZM194.8 75.6123C196.184 75.6123 197.292 75.704 198.125 75.8873C198.392 75.954 198.525 76.1206 198.525 76.3873V78.4373C198.525 78.6873 198.384 78.8123 198.1 78.8123H195.75C195.05 78.8123 194.584 78.8956 194.35 79.0623C194.117 79.229 194 79.5706 194 80.0873V89.3373C194 89.604 193.875 89.7373 193.625 89.7373H190.65C190.4 89.7373 190.275 89.604 190.275 89.3373V79.1373C190.275 77.9873 190.584 77.1206 191.2 76.5373C191.934 75.9206 193.134 75.6123 194.8 75.6123ZM205.046 75.6123C207.379 75.6123 208.971 75.9623 209.821 76.6623C210.671 77.3623 211.096 78.4456 211.096 79.9123V88.5623C211.096 88.9623 210.913 89.2206 210.546 89.3373C209.029 89.6873 207.138 89.8623 204.871 89.8623C203.754 89.8623 202.896 89.8206 202.296 89.7373C201.713 89.654 201.154 89.4706 200.621 89.1873C199.621 88.6373 199.113 87.4206 199.096 85.5373C199.113 83.9373 199.521 82.854 200.321 82.2873C201.138 81.7206 202.438 81.4373 204.221 81.4373H207.396V80.5373C207.396 79.3873 206.613 78.8123 205.046 78.8123H200.521C200.388 78.8123 200.296 78.7873 200.246 78.7373C200.196 78.6873 200.171 78.5873 200.171 78.4373V76.3873C200.171 76.254 200.188 76.1623 200.221 76.1123C200.271 76.0623 200.371 76.0206 200.521 75.9873C201.804 75.7373 203.313 75.6123 205.046 75.6123ZM207.396 86.6123V83.8373H204.521C203.871 83.8373 203.413 83.954 203.146 84.1873C202.896 84.404 202.771 84.7873 202.771 85.3373C202.771 85.9206 202.921 86.3206 203.221 86.5373C203.538 86.754 204.096 86.8623 204.896 86.8623C205.996 86.8623 206.829 86.779 207.396 86.6123ZM219.357 75.6123C220.79 75.6123 222.107 75.7206 223.307 75.9373C223.574 76.004 223.707 76.1373 223.707 76.3373V78.2373C223.707 78.504 223.565 78.6373 223.282 78.6373H218.782C217.799 78.6373 217.307 78.9373 217.307 79.5373V79.7873C217.307 80.2873 217.707 80.6706 218.507 80.9373L221.707 82.0623C222.674 82.3956 223.349 82.8623 223.732 83.4623C224.132 84.0456 224.332 84.829 224.332 85.8123V86.2123C224.332 87.529 223.89 88.4706 223.007 89.0373C222.14 89.5873 220.807 89.8623 219.007 89.8623C217.074 89.8623 215.349 89.779 213.832 89.6123C213.549 89.6123 213.407 89.4873 213.407 89.2373V87.2123C213.407 86.9623 213.549 86.8373 213.832 86.8373H218.957C219.624 86.8373 220.074 86.779 220.307 86.6623C220.557 86.5456 220.682 86.3206 220.682 85.9873V85.7623C220.682 85.5123 220.582 85.304 220.382 85.1373C220.199 84.954 219.84 84.7706 219.307 84.5873L216.232 83.4873C214.532 82.9206 213.682 81.654 213.682 79.6873V79.2123C213.682 77.9456 214.149 77.029 215.082 76.4623C216.015 75.8956 217.44 75.6123 219.357 75.6123Z" fill="#593493"/>
<g clip-path="url(#clip0_838_17412)">
<path d="M106.773 25.8026C106.773 42.2165 100.757 45.5463 82.9473 45.5463H72.8645V65.4376C72.8645 66.4913 72.6184 66.7372 71.6445 66.7372H61.3156C60.3383 66.7372 60.0957 66.4948 60.0957 65.4376V6.95463C60.0957 6.05895 60.3383 5.90088 61.3156 5.81658C68.4699 5.16677 76.2781 4.9209 82.9473 4.9209C100.757 4.9209 106.773 9.56441 106.773 25.8026ZM72.8645 16.052V35.7219H81.6535C91.3285 35.7219 93.8527 34.4223 93.8527 26.1363C93.8527 18.0084 91.3285 16.059 81.6535 16.059L72.8645 16.052Z" fill="#593493"/>
<path d="M136.501 21.7252C137.394 21.9675 137.802 22.2942 137.802 23.348V30.0217C137.802 30.8366 137.313 31.2405 136.417 31.2405H128.774C124.555 31.2405 123.082 31.8903 123.082 35.3853V65.4487C123.082 66.3408 122.674 66.7483 121.862 66.7483H112.18C111.368 66.7483 110.96 66.3408 110.96 65.4487V32.2872C110.96 22.0483 118.279 20.833 125.68 20.833C128.042 20.833 133.653 21.0754 136.501 21.7252Z" fill="#593493"/>
<path d="M182.141 43.5826C182.141 62.104 178.316 66.737 161.398 66.737C144.566 66.737 140.656 62.104 140.656 43.5826C140.656 24.9665 144.562 20.4248 161.398 20.4248C178.298 20.4248 182.141 24.9735 182.141 43.5826ZM152.782 43.5826C152.782 53.818 154.002 56.3365 161.402 56.3365C168.883 56.3365 170.103 53.818 170.103 43.5826C170.103 33.3473 168.883 30.8253 161.402 30.8253C153.984 30.8253 152.764 33.3437 152.764 43.5826H152.782Z" fill="#593493"/>
<path d="M222.571 21.2365C223.464 21.2365 223.953 21.644 223.953 22.4553V27.9805C223.939 28.5443 223.738 29.0875 223.383 29.526L203.379 56.3368H223.626C224.519 56.3368 225.008 56.7443 225.008 57.5557V65.4377C225.008 66.3299 224.519 66.7373 223.626 66.7373H187.348C186.374 66.7373 185.886 66.3299 185.886 65.4377V60.1444C185.889 59.5796 186.091 59.0339 186.455 58.6024L207.103 31.3946H188.245C187.267 31.3946 186.86 30.9872 186.86 30.1758V22.4483C186.86 21.6369 187.267 21.2295 188.245 21.2295L222.571 21.2365Z" fill="#593493"/>
<path d="M25.6074 0.203707L42.0535 9.68743C42.2826 9.82065 42.4727 10.0116 42.6049 10.2412C42.737 10.4708 42.8065 10.731 42.8065 10.9958C42.8065 11.2607 42.737 11.5209 42.6049 11.7505C42.4727 11.9801 42.2826 12.171 42.0535 12.3042L25.6074 21.788C25.3777 21.9205 25.1172 21.9902 24.8519 21.9903C24.5867 21.9904 24.3261 21.9207 24.0963 21.7883C23.8665 21.6559 23.6757 21.4654 23.5429 21.236C23.4101 21.0066 23.3401 20.7463 23.3398 20.4813V1.51386C23.3405 1.24897 23.4108 0.988894 23.5436 0.759613C23.6763 0.530333 23.867 0.339875 24.0965 0.207266C24.326 0.0746561 24.5864 0.00453536 24.8515 0.00391046C25.1166 0.00328556 25.3773 0.0721807 25.6074 0.203707Z" fill="#593493"/>
<path d="M19.6836 44.3769H2.05625C1.85743 44.3774 1.66048 44.3387 1.47666 44.263C1.29285 44.1873 1.12578 44.0761 0.985029 43.9358C0.84428 43.7955 0.732616 43.6288 0.656426 43.4454C0.580235 43.2619 0.541015 43.0652 0.541016 42.8666V25.2514C0.544808 24.954 0.636223 24.6643 0.803845 24.4184C0.971468 24.1726 1.20787 23.9815 1.48353 23.8691C1.75918 23.7567 2.06188 23.7279 2.35381 23.7863C2.64574 23.8448 2.91397 23.9879 3.125 24.1977L20.7734 41.7988C20.9861 42.0113 21.1305 42.2823 21.1881 42.5772C21.2458 42.8721 21.2141 43.1775 21.097 43.4543C20.98 43.7312 20.783 43.9668 20.5312 44.1312C20.2795 44.2955 19.9843 44.3811 19.6836 44.3769Z" fill="#FF7F00"/>
<path d="M19.6871 46.0947H2.05273C1.21784 46.0947 0.541016 46.7709 0.541016 47.6051V65.2238C0.541016 66.0579 1.21784 66.7341 2.05273 66.7341H19.6871C20.522 66.7341 21.1988 66.0579 21.1988 65.2238V47.6051C21.1988 46.7709 20.522 46.0947 19.6871 46.0947Z" fill="#FF7F00"/>
<path d="M10.8738 0.136719H10.8703C4.8668 0.136719 0 4.99918 0 10.9973V11.0008C0 16.999 4.8668 21.8615 10.8703 21.8615H10.8738C16.8773 21.8615 21.7441 16.999 21.7441 11.0008V10.9973C21.7441 4.99918 16.8773 0.136719 10.8738 0.136719Z" fill="#FF7F00"/>
<path d="M24.5535 44.373C29.4693 43.9855 34.0857 41.8592 37.5731 38.3762C41.0605 34.8931 43.1904 30.2817 43.5801 25.3704C43.5956 25.1627 43.568 24.954 43.499 24.7573C43.43 24.5607 43.3212 24.3805 43.1793 24.2278C43.0374 24.0752 42.8655 23.9534 42.6743 23.8702C42.4832 23.787 42.2769 23.744 42.0684 23.7441H24.4375C24.0366 23.7441 23.6521 23.9033 23.3686 24.1865C23.0851 24.4698 22.9258 24.8539 22.9258 25.2545V42.8626C22.9257 43.071 22.9686 43.2771 23.0519 43.4681C23.1352 43.659 23.2571 43.8308 23.4099 43.9726C23.5627 44.1143 23.7431 44.2231 23.9399 44.292C24.1367 44.3609 24.3456 44.3885 24.5535 44.373Z" fill="#FF7F00"/>
</g>
<defs>
<clipPath id="clip0_838_17412">
<rect width="225" height="66.7373" fill="white"/>
</clipPath>
</defs>
</svg>
